#!OML:ASF F:\VICON\USERDATA\INSTALL\rory3\rory3.ASF
:FULLY-SPECIFIED
:DEGREES
1
root -0.4299809999999999 18.1925 -35.888799999999975 7.925020000000009 -6.283879999999988 1.6473799999999985
lfemur 15.857399999999938 -4.321449999999996 -31.267500000000005
ltibia 33.78569999999999
lfoot 29.740899999999968 -23.224899999999995
ltoes -13.24509999999999
rfemur -40.995199999999954 3.8734200000000003 22.490499999999994
rtibia 26.4298000000001
rfoot -1.5824199999999995 -2.147940000000001
rtoes -20.59289999999995
lowerback 1.0 -0.9074590000000006 -3.2893899999999965
upperback -1.1525699999999992 -1.6374100000000045 1.35917
thorax -8.8411 -0.5939209999999975 3.668160000000002
lowerneck -18.288599999999995 -1.5193099999999977 -1.8711400000000005
upperneck 13.183200000000001 -1.7164100000000055 0.8344370000000008
head 7.05351 -0.841972999999999 0.3827290000000002
lclavicle 5.501369999999992e-14 2.385420000000012e-15
lhumerus -41.173300000000005 -13.963399999999998 94.3249
lradius 122.453
lwrist 37.41239999999999
lhand -24.8807 -0.5495270000000011
lfingers 7.12502
lthumb 1.6267599999999867 29.424
rclavicle 5.501369999999992e-14 2.385420000000012e-15
rhumerus -67.26170000000002 5.147359999999987 -90.9746
rradius 105.25799999999998
rwrist -13.4593
rhand -21.7461 1.0
rfingers 7.12502
rthumb 4.65391 11.181499999999996
2
root -0.41935000000000044 18.147 -34.8059999999999 7.517550000000004 -4.75022000000001 1.767690000000005
lfemur 14.144400000000008 -5.413579999999991 -30.742600000000003
ltibia 41.79819999999998
lfoot 30.36769999999999 -23.54470000000001
ltoes -8.29851
rfemur -40.37779999999997 1.97053 23.256000000000007
rtibia 24.567399999999928
rfoot -1.94528 -3.7476899999999924
rtoes -23.335499999999957
lowerback 1.0 -1.7051200000000004 -2.5708099999999945
upperback -0.77683 -2.5670300000000084 1.38772
thorax -8.219569999999997 -1.097139999999997 3.455419999999998
lowerneck -17.8814 -1.6521899999999983 -2.25338
upperneck 12.406299999999998 -1.8186899999999997 0.9277090000000043
head 6.73853 -0.9017300000000035 0.4678749999999997
lclavicle 5.526209999999991e-14 -1.9878500000000017e-14
lhumerus -41.376500000000014 -13.4436 94.2971
lradius 120.43400000000001
lwrist 37.9169
lhand -25.93180000000001 -0.7375410000000013
lfingers 7.12502
lthumb 0.6116330000000012 29.241300000000003
rclavicle 5.526209999999991e-14 -1.9878500000000017e-14
rhumerus -65.36950000000003 4.54185999999999 -90.36930000000001
rradius 104.289
rwrist -13.7894
rhand -20.1971 1.0
rfingers 7.12502
rthumb 6.149520000000002 10.427200000000003
3
root -0.4137199999999995 18.0629 -33.73249999999997 6.820800000000004 -4.8007799999999925 1.195210000000004
lfemur 11.940800000000007 -4.384759999999997 -29.475800000000007
ltibia 49.99069999999998
lfoot 34.7222 -23.293199999999977
ltoes -2.931779999999989
rfemur -39.248000000000026 1.0442700000000005 24.964300000000005
rtibia 24.652200000000065
rfoot -0.6173939999999916 -4.578979999999996
rtoes -22.149300000000032
lowerback 1.0 -1.1154500000000018 -1.6060300000000036
upperback 0.04671539999999885 -1.6576900000000023 1.0998399999999995
thorax -7.900559999999996 -0.7172570000000031 2.427570000000002
lowerneck -21.3806 -2.1422 -0.9454929999999975
upperneck 13.276499999999999 -2.7235599999999964 0.5813310000000054
head 7.595129999999999 -1.2880899999999977 0.005123190000000388
lclavicle 1.8834800000000004e-14 -4.77083e-15
lhumerus -40.276299999999985 -15.217299999999998 94.1637
lradius 117.558
lwrist 38.03989999999999
lhand -26.39009999999999 -0.010034699999999619
lfingers 7.12502
lthumb 0.16895499999999686 29.9696
rclavicle 1.8834800000000004e-14 -4.77083e-15
rhumerus -62.463100000000004 1.6175299999999808 -89.8256
rradius 103.44499999999998
rwrist -13.3057
rhand -19.0883 1.0
rfingers 7.12502
rthumb 7.219870000000001 10.318500000000004
4
root -0.4083409999999995 17.9014 -32.689599999999885 6.040559999999995 -5.972119999999989 0.2282350000000022
lfemur 9.258720000000032 -2.2967699999999986 -27.68860000000001
ltibia 58.8023
lfoot 37.84009999999994 -20.875600000000013
ltoes -2.5781199999999886
rfemur -38.634200000000035 -0.0952546000000023 27.5053
rtibia 27.628399999999957
rfoot 0.39318500000000833 -2.368330000000001
rtoes -21.2324
lowerback 1.0 -1.030579999999997 -1.1496899999999957
upperback 0.27095899999999873 -1.4285300000000052 1.6272200000000006
thorax -7.639749999999999 -0.6194990000000011 2.678820000000001
lowerneck -19.0264 -1.8892599999999988 -1.9051499999999992
upperneck 12.0288 -2.2164800000000002 1.0306799999999972
head 6.80876 -1.0620200000000015 0.39419100000000007
lclavicle 2.9817699999999964e-15 -8.348959999999997e-15
lhumerus -41.209900000000005 -13.0686 94.4097
lradius 114.392
lwrist 37.553799999999995
lhand -26.17950000000001 0.35571599999999975
lfingers 7.12502
lthumb 0.3723490000000096 30.3351
rclavicle 2.9817699999999964e-15 -8.348959999999997e-15
rhumerus -60.89350000000002 2.43201 -89.7563
rradius 102.332
rwrist -12.899600000000001
rhand -19.500100000000003 1.0
rfingers 7.12502
rthumb 6.822380000000001 10.654700000000002
